<?xml version="1.0" standalone="no"?>
<!DOCTYPE svg PUBLIC "-//W3C//DTD SVG 1.1//EN" "http://www.w3.org/Graphics/SVG/1.1/DTD/svg11.dtd" >
<!--
2013-9-30: Created.
-->
<svg>
<metadata>
Created by iconfont
</metadata>
<defs>

<font id="iconfont" horiz-adv-x="1024" >
  <font-face
    font-family="iconfont"
    font-weight="500"
    font-stretch="normal"
    units-per-em="1024"
    ascent="896"
    descent="-128"
  />
    <missing-glyph />
    
    <glyph glyph-name="icon" unicode="&#58957;" d="M510.476 83.371c-83.573 0-153.801 57.622-173.713 135.613h-44.93c20.674-103.17 110.707-180.82 218.644-180.82s197.971 77.651 218.644 180.82h-44.93c-19.91-77.99-90.136-135.613-173.713-135.613zM331.845 354.601c24.563 0 44.475 20.238 44.475 45.203s-19.911 45.203-44.475 45.203c-24.563 0-44.479-20.238-44.479-45.203-0.001-24.965 19.916-45.203 44.479-45.203zM510.476 759.989c-247.246 0-447.674-202.066-447.674-451.323 0-249.262 200.429-451.323 447.674-451.323 247.241 0 447.674 202.061 447.674 451.323 0.001 249.257-200.432 451.323-447.674 451.323zM509.745-97.454c-222.678 0-403.195 181.828-403.195 406.121s180.517 406.115 403.195 406.115c222.687 0 403.204-181.824 403.204-406.115s-180.517-406.121-403.204-406.121zM689.109 445.006c-24.559 0-44.475-20.238-44.475-45.203s19.916-45.203 44.475-45.203c24.563 0 44.48 20.238 44.48 45.203 0 24.965-19.917 45.203-44.48 45.203z"  horiz-adv-x="1024" />

    
    <glyph glyph-name="binglixuanzhong" unicode="&#58961;" d="M817.414945 722.703095 677.31614 722.703095l-0.596588-106.443287L340.707752 616.259808l0.372483 106.443287L200.981431 722.703095c-22.415522 0-39.22742-22.415522-39.22742-44.831045L161.754011-17.017326c0-22.415522 22.415522-44.831045 44.831045-44.831045l610.829889 0c22.415522 0 44.831045 22.415522 44.831045 44.831045L862.245989 677.872051C862.245989 700.287573 839.830467 722.703095 817.414945 722.703095zM380.307655 453.713758l106.47501 0c0 51.951209 0 106.47501 0 106.47501l44.831045 0 0-106.47501 100.871385 0 0-44.831045-100.871385 0 0-100.871385-44.831045 0c0 0 0 52.452629 0 100.871385l-106.47501 0L380.307655 453.713758zM682.919764 67.042161c-5.603625-11.208273-16.811898-16.811898-28.02017-16.811898L363.495758 50.230264c-11.208273 0-22.415522 5.603625-22.415522 16.811898l0 5.603625c0 11.208273 11.208273 22.415522 22.415522 22.415522l297.008484 0c11.208273 0 22.415522-11.208273 22.415522-22.415522L682.919764 67.042161zM682.919764 151.101649c-5.603625-16.811898-16.811898-22.415522-28.02017-22.415522L363.495758 128.686127c-11.208273 0-22.415522 11.208273-22.415522 22.415522l0 5.603625c0 11.208273 11.208273 22.415522 22.415522 22.415522l297.008484 0c11.208273 0 22.415522-11.208273 22.415522-22.415522L682.919764 151.101649zM682.919764 229.556489c-5.603625-16.811898-16.811898-22.415522-28.02017-22.415522L363.495758 207.140966c-11.208273 0-22.415522 11.208273-22.415522 22.415522l0 5.603625c0 11.208273 11.208273 22.415522 22.415522 22.415522l297.008484 0c11.208273 0 22.415522-11.208273 22.415522-22.415522L682.919764 229.556489zM640.890532 739.514993l-64.907289 0c3.084245 7.813966 4.833075 16.305361 4.833075 25.217335 0 38.008662-30.812773 68.816319-68.816319 68.816319s-68.816319-30.812773-68.816319-68.816319c0-8.912997 1.74883-17.403369 4.833075-25.217335L383.109468 739.514993l0-84.059488 257.781064 0L640.890532 739.514993 640.890532 739.514993z"  horiz-adv-x="1024" />

    
    <glyph glyph-name="xiaoshou" unicode="&#58945;" d="M445.943027 755.842867c-64.705698-100.43955-31.890314-174.019359-31.890314-174.019359s-25.12319 41.269939-37.620829 0c-12.604062-41.354873 8.317433-57.892525 52.316529-109.507066 43.890626-51.676963 110.859877-130.194224 163.132404-148.796908 52.380998-18.602683 142.253888 76.431763 194.570417 138.38886 52.315506 62.021565 50.161447 97.1619 35.509748 119.915114-14.589276 22.730701-22.948665 0-22.948665 0s18.831904 106.356306-31.458479 170.400948C683.28355 859.81487 510.777661 856.239438 445.943027 755.842867L445.943027 755.842867zM480.460168 306.491719c0 0 29.735232-86.22071 57.401338-144.987139 27.53717-58.827827 25.447579-37.820374 25.447579-37.820374s21.222347 77.707826 21.222347 94.52177-29.755698 31.564903-19.132756 58.82885c10.644431 27.329439 44.623313 37.82242 70.134337 20.965497 25.470091-16.70752 23.422456-29.331026 10.580986-56.723909-12.713556-27.26497-14.824637-42.015929-14.824637-42.015929l27.558659-79.771835 78.625732 180.617637c23.982204 55.105039 232.125755-160.907737 219.563648-277.225929-13.120832-120.616078-703.896518-96.139617-703.896518-33.692357C253.139859 148.267091 329.782424 253.240911 480.460168 306.491719zM63.93566 449.181535c0 2.000564 166.967756 151.798265 174.551478 159.118997C262.642281 584.781886 408.967904 449.181535 408.967904 449.181535l0-125.256772c0-32.30987-83.042321-24.136723-147.294694-131.856074-69.338205-116.167766-35.294854-227.461525-64.921615-229.740428-28.463262-2.299369-61.365626 0.661056-98.362238 0.661056-18.960841 0-34.453696 11.68411-34.453696 25.880437C63.93566 141.49792 63.93566 297.764963 63.93566 449.181535L63.93566 449.181535zM234.307955 507.840516c-51.64831 0-93.556792-41.461297-93.556792-92.458785 0-51.060933 41.909505-92.480274 93.556792-92.480274 51.691289 0 93.66424 41.419342 93.66424 92.480274C327.972195 466.379219 285.999245 507.840516 234.307955 507.840516z"  horiz-adv-x="1024" />

    
    <glyph glyph-name="hudong1" unicode="&#59069;" d="M398.222222 99.555556 113.777778 99.555556 113.777778 668.444444 284.444444 668.444444C315.847111 668.444444 341.333333 693.930667 341.333333 725.333333L341.333333 725.333333C341.333333 756.736 315.847111 782.222222 284.444444 782.222222L113.777778 782.222222C51.2 782.222222 0 731.022222 0 668.444444L0 99.555556C0 36.977778 51.2-14.222222 113.777778-14.222222L398.222222-14.222222 398.222222 99.555556ZM1024 99.555556 1024 668.444444C1024 731.022222 972.8 782.222222 910.222222 782.222222L625.777778 782.222222 625.777778 668.444444 910.222222 668.444444 910.222222 99.555556 739.555556 99.555556C708.152889 99.555556 682.666667 71.111111 682.666667 42.666667 682.666667 14.222222 708.152889-14.222222 739.555556-14.222222L910.222222-14.222222C972.8-14.222222 1024 36.977778 1024 99.555556M625.777778 554.666667 398.222222 725.333333 625.777778 896ZM398.222222 213.333333 625.777778 42.666667 398.222222-128Z"  horiz-adv-x="1024" />

    
    <glyph glyph-name="common-xiangmubiaoqian-copy" unicode="&#58902;" d="M817.404 306.751c0 18.863-6.288 35.031-19.761 49.404l-385.347 384.449c-13.475 13.473-32.337 25.151-54.791 35.031-23.354 9.881-44.014 14.372-62.877 14.372h-224.561c-18.863 0-35.033-7.186-48.505-20.66-13.475-13.475-20.66-29.642-20.66-48.505v-223.663c0-18.863 4.491-40.421 14.372-62.877 9.881-23.354 20.66-41.319 35.031-54.794l385.347-385.347c13.473-13.473 29.642-19.761 48.505-19.761s35.031 6.288 49.404 19.761l264.084 264.084c12.575 13.475 19.761 29.642 19.761 48.505v0zM221.867 568.14c-13.475-13.475-29.642-19.761-48.505-19.761s-35.031 6.288-48.505 19.761c-13.473 13.475-19.761 29.642-19.761 48.505 0 18.863 6.288 35.031 19.761 48.505 13.475 13.475 29.642 19.761 48.505 19.761 18.863 0 35.031-6.288 48.505-19.761 13.475-13.475 19.761-29.642 19.761-48.505 0.898-18.863-6.288-35.031-19.761-48.505v0zM1004.239 356.154l-385.347 384.449c-13.475 13.473-32.337 25.151-54.791 35.031-23.354 9.881-44.014 14.372-62.877 14.372h-121.263c18.863 0 40.421-4.491 62.877-14.372 23.354-9.881 41.319-20.66 54.791-35.031l385.347-384.449c13.473-14.372 19.761-30.54 19.761-49.404s-6.288-35.033-19.761-48.505l-252.409-253.305c10.779-10.779 20.66-18.863 28.743-24.253 8.084-5.389 18.863-7.186 31.439-7.186 18.863 0 35.033 6.288 49.404 19.761l264.084 264.982c13.475 13.475 19.761 29.642 19.761 48.505s-6.288 35.031-19.761 49.404v0zM1004.239 356.154z"  horiz-adv-x="1024" />

    
    <glyph glyph-name="xitongguanli" unicode="&#59001;" d="M860.016717 126.492158L680.366104 303.915034c11.576663 24.292266 18.014282 51.474348 18.014282 79.996962 0 102.973256-83.165118 186.237635-186.265264 186.237635-17.124006 0-33.969673-2.304486-49.751101-6.687306l79.694064-79.440284c33.057907-33.285081 30.521131-88.989777-5.346775-124.779911-35.71748-35.594683-91.675956-38.10383-124.732839-5.373381l-79.517032 80.021521c-4.40738-15.881712-6.713912-32.55137-6.713912-49.979298 0-103.150288 83.443457-186.79636 186.315406-186.79636 28.316929 0 55.782467 6.484691 79.719646 18.166755L770.64934 37.473729c22.848381-22.394033 60.97063-21.049409 85.467557 3.831258 24.471344 24.314779 26.216081 62.819744 3.89982 85.187171z m-48.231491-72.348771c-17.326621 0-31.966039 14.164604-31.966039 31.767517 0 17.026792 14.640442 31.008224 31.966039 31.008225 17.503653 0 31.588439-13.964036 31.588439-31.008225 0-17.602913-14.084787-31.767518-31.588439-31.767517z m91.296309 412.477332h-18.187221l-42.404786 0.378623h-0.299829c-8.518001 0.786922-16.622586 3.825119-23.73968 8.435113-0.479931 0-0.657986 0.202615-0.962931 0.582262-15.045671 9.752108-25.079188 27.181059-24.798803 46.509266 0 6.131651 1.239224 11.676947 3.168156 17.427928 1.694595 6.105045 4.787026 12.056594 8.916067 17.022699l9.345856 9.576099 21.177322 20.846794 12.413727 12.639878c18.113543 23.332405 18.113543 56.845683-0.63138 80.377632l-36.375465 37.314861c-24.243147 18.566868-57.609069 19.149129-81.243349 1.137916l-13.221116-12.615319-29.464056-30.244838h-0.402159c-16.083304-13.020548-38.275745-15.503089-56.639998-7.447622-6.335289 2.862187-11.981892 6.485715-17.505699 11.855002-8.714476 9.373485-14.086833 20.670785-15.579837 32.727379v61.228503c-3.647063 29.661553-27.205619 53.018517-57.529251 56.462966h-51.850925c-29.79049-3.267417-53.779857-26.598798-58.010206-56.083319V714.082764c-0.177032-1.545192-0.759293-3.242857-0.861623-4.611018v-0.555655c-0.479931-1.520633-0.632403-3.065825-0.836042-4.41045-0.582261 0-0.582261-0.582261-0.582261-0.582261-0.532119-1.341554-0.836041-3.444449-1.595334-4.380774-0.508583-1.723248-1.470491-3.064802-2.205225-4.609994v-0.179079c-3.166109-6.508227-7.573489-12.056594-13.501502-16.84362-9.575076-8.233522-22.418592-13.196557-36.171827-13.196557-12.920264 0-24.977881 4.380774-34.300201 12.055571l-9.447163 9.550516-21.10262 20.669762-12.817934 13.021572c-23.557532 17.984606-56.942897 17.984606-80.402191-0.961908l-37.186947-36.731576c-18.7439-23.355941-19.049868-56.844659-1.13894-80.780815l12.817933-12.615319 30.043247-29.867238c0.582261-0.961908 1.038656-1.722224 1.620917-2.659572 0.404206-0.177032 0.759293-0.962931 1.545193-1.924839 0.405229-0.558725 0.735757-1.697665 1.341554-2.483564 0-0.179079 0.988514-1.140986 0.988514-1.723248 0.532119-0.759293 1.13894-2.102894 1.773389-3.065825 0-0.556679 0.202615-1.13894 0.506537-1.722225 0.556679-0.75827 0.759293-2.102894 1.620917-3.267417 0-0.379647 0.100284-0.961908 0.302899-1.518586 0.152473-1.724271 1.038656-3.065825 1.038655-4.762467 0.481977-1.724271 0.734734-3.242857 0.734734-4.990664 2.432399-16.46602-3.14155-33.691333-15.984043-46.332235-9.069563-9.193383-20.720927-14.540158-32.803103-15.881712H121.957121c-29.763884-4.231371-53.221132-27.942399-56.565297-57.426921l-0.176008-52.259224c3.039219-30.043247 26.39516-53.576219 56.083319-57.604976h18.263969l42.330084-0.584308c1.520633-0.173962 3.648087-0.173962 5.065366-0.75827h1.444908c1.344624-0.558725 2.103918-0.959861 3.648087-1.138939 22.873963-7.091512 39.416731-28.345582 39.416732-53.598732 0-12.81998-4.38282-25.282826-12.135389-34.830274l-9.296737-8.997931-21.329794-20.869307-12.739139-12.646018c-17.784038-23.939225-17.784038-57.224306 0.656963-80.5782l37.035498-37.30872c23.633257-18.773576 56.742329-18.947538 80.755232-0.759293l12.616342 12.610202 30.372751 29.6636c0 0.384763 0.25378 0.384763 0.633427 0.585331 1.140986 1.133823 2.406816 1.719154 3.26844 2.862188 1.038656 0.174985 1.24127 0.174985 2.001587 0.759293 0.558725 0.375553 1.544169 1.161453 2.305508 1.720177 1.038656 0.584308 2.38021 0.75827 3.444449 1.343602 0.659009 0.384763 1.165546 0.558725 1.36816 0.959861 1.595334 0.183172 2.659573 0.759293 4.760421 1.343601 1.824555 0.558725 3.065825 1.343601 4.409426 1.343601h0.506537c1.444908 0.38374 2.963495 0.584308 4.609994 0.959861h0.379647c1.36816 0 2.686179 0 3.825118 0.584308 15.503089 0.558725 31.182186-4.782933 42.708708-16.669658 9.549493-9.172917 14.539134-21.049409 16.186657-33.102932l-0.202614-13.021572V-6.17335c3.623527-30.065759 27.459399-53.602825 57.1977-56.666605h52.338019c29.992081 3.063779 53.497425 26.4013 57.626465 55.706743v17.986653l0.47993 30.624485v12.060687c1.169639 10.917654 5.070482 19.907399 11.100826 27.936259 0.579191 0.959861 1.134847 1.545192 1.719154 2.103918 0.379647 0.200568 0.839111 1.343601 1.725295 1.719154 3.319605 3.648087 7.062859 6.894014 11.17041 9.757225 1.243317 0.174985 2.482541 1.143033 3.267417 1.720177 0.935302 0.558725 0.935302 0.558725 1.344624 0.558725 0.553609 0.173962 0.933255 0.173962 1.037633 0.173963 1.061169 0.768503 1.920746 0.768503 3.164062 1.343601l-50.079582 49.928132c-21.705348-6.300496-44.583404-9.372461-68.217684-9.372461-135.422296 0.184195-244.500597 109.843734-244.044202 244.605997 0 135.496997 110.066815 244.979504 245.285472 244.600881 135.038556-0.556679 244.070808-110.242823 243.868194-245.387803-0.104377-22.948665-3.573385-45.747927-9.705036-66.39313l50.462298-49.600675c2.583848 5.930059 6.685259 11.096732 11.276835 16.288988 5.190209 4.966105 12.078083 8.788154 18.361183 11.271718 4.738931 2.103918 9.599635 3.647063 14.286378 4.228301H902.321218c29.6636 4.031826 53.123918 27.561729 56.466036 57.224306v52.844556c-2.988054 29.563316-26.245757 53.502541-55.705719 57.530274z"  horiz-adv-x="1024" />

    
    <glyph glyph-name="xinzeng" unicode="&#59542;" d="M512 895.985C229.226 895.985 0 666.768 0 384.006c0-282.751 229.226-511.992 512-511.992 282.775 0 512 229.241 512 511.992C1024 666.77 794.774 895.985 512 895.985z m258.025-544.226c0-17.823-14.424-32.25-32.252-32.25H576.5v-161.245c0-17.822-14.424-32.248-32.249-32.248H479.75c-17.826 0-32.25 14.426-32.25 32.248l-0.001 161.243H286.226c-17.826 0-32.25 14.427-32.25 32.25v64.522c0 17.825 14.424 32.248 32.25 32.248h161.273V609.772c0 17.799 14.426 32.249 32.252 32.249h64.501c17.825 0 32.249-14.45 32.249-32.249v-161.245h161.275c17.826 0 32.25-14.449 32.25-32.248v-64.52h-0.001z"  horiz-adv-x="1024" />

    
    <glyph glyph-name="courseware" unicode="&#58884;" d="M694.857143 566.857143l-65.828572 65.828571-314.514285-314.514285c-51.2-51.2-51.2-138.971429 0-190.171429 51.2-51.2 138.971429-51.2 190.171428 0l380.342857 380.342857c87.771429 87.771429 87.771429 226.742857 0 314.514286C797.257143 910.628571 658.285714 910.628571 563.2 822.857143L168.228571 420.571429c-124.342857-124.342857-124.342857-321.828571 0-446.171429 124.342857-124.342857 321.828571-124.342857 446.171429 0l270.628571 270.628571-65.828571 65.828572-270.628571-270.628572c-87.771429-87.771429-226.742857-87.771429-314.514286 0C146.285714 128 146.285714 266.97142899999994 234.057143 354.74285699999996l402.285714 402.285714c51.2 51.2 138.971429 51.2 190.171429 0 51.2-51.2 51.2-138.971429 0-190.171428L438.857143 186.51428599999997c-14.628571-14.628571-43.885714-14.628571-65.828572 0-14.628571 21.942857-14.628571 51.2 0 65.828571l321.828572 314.514286z"  horiz-adv-x="1024" />

    
    <glyph glyph-name="ziliao" unicode="&#58880;" d="M836.267 896H409.6c-27.307 0-51.2-22.187-51.2-51.2v-170.667c0-29.013-22.187-51.2-51.2-51.2H136.533c-29.013 0-51.2-22.186-51.2-51.2V-25.600000000000023c0-56.32 46.08-102.4 102.4-102.4h648.534c56.32 0 102.4 46.08 102.4 102.4V793.6c0 56.32-46.08 102.4-102.4 102.4zM725.333 128H298.667c-13.654 0-25.6 11.947-25.6 25.6 0 13.653 11.946 25.6 25.6 25.6h426.666c13.654 0 25.6-11.947 25.6-25.6 0-13.653-11.946-25.6-25.6-25.6z m0 170.667H298.667c-13.654 0-25.6 11.946-25.6 25.6 0 13.653 11.946 25.6 25.6 25.6h426.666c13.654 0 25.6-11.947 25.6-25.6 0-13.654-11.946-25.6-25.6-25.6z m0 170.666H452.267c-13.654 0-25.6 11.947-25.6 25.6 0 13.654 11.946 25.6 25.6 25.6h273.066c13.654 0 25.6-11.946 25.6-25.6 0-13.653-11.946-25.6-25.6-25.6zM122.88 672.427h131.413c29.014 0 51.2 22.186 51.2 51.2V863.573c0 18.774-10.24 23.894-23.893 10.24L110.933 698.027c-11.946-13.654-6.826-25.6 11.947-25.6z"  horiz-adv-x="1024" />

    
    <glyph glyph-name="wen" unicode="&#59122;" d="M420.352 347.648h130.048v145.92H420.352v-145.92zM33.28 778.24v-675.84c0-61.952 50.688-112.64 112.64-112.64h619.52l225.28-112.64v112.64V778.24c0 61.952-50.688 112.64-112.64 112.64H145.92c-61.952 0-112.64-50.688-112.64-112.64z m237.056-643.584H204.8V647.168h65.536v-512.512zM262.144 739.328l59.392 26.112c29.184-35.328 56.32-75.264 81.92-120.832l-57.344-29.696c-25.6 47.616-53.76 89.088-83.968 124.416z m93.696-184.32H614.4v-268.8H355.84V555.008z m412.672-335.872c0-53.248-29.184-79.872-87.552-79.872H611.328l-16.384 59.904 72.192-1.536c23.552 0 35.328 12.8 35.328 37.888V662.528H447.488V724.48h321.024v-505.344z"  horiz-adv-x="1024" />

    
    <glyph glyph-name="excel" unicode="&#58984;" d="M788.48 107.52h148.48c5.12 0 10.24 5.12 10.24 10.24V179.2c0 10.24-5.12 10.24-10.24 10.24H788.48v-81.92z m158.72 235.52h-158.72v-76.8h158.72v76.8z m-158.72 158.72v-56.32c0-20.48 0-20.48 20.48-20.48h122.88c5.12 0 10.24 5.12 10.24 5.12V501.76h-153.6z m0 76.8h148.48c5.12 0 10.24 5.12 10.24 10.24V660.48h-158.72v-81.92z m-158.72-588.8v117.76h117.76v81.92h-117.76v76.8h117.76v81.92h-117.76V424.96h117.76V501.76h-117.76V578.56h117.76V660.48h-117.76V783.36H1024v-793.6h-394.24z m-174.08 194.56H378.88c-5.12 0-10.24 0-15.36 5.12L307.2 312.32c-5.12 10.24-5.12 15.36-10.24 20.48-25.6-46.08-51.2-97.28-76.8-143.36 0-5.12-5.12-5.12-10.24-5.12h-102.4c5.12 5.12 5.12 10.24 5.12 10.24 35.84 61.44 76.8 117.76 112.64 179.2 5.12 5.12 5.12 10.24 0 20.48-35.84 56.32-66.56 117.76-102.4 179.2 0 0 0 5.12-5.12 10.24h102.4c5.12 0 10.24-5.12 10.24-5.12 20.48-40.96 40.96-87.04 61.44-128 5.12-5.12 5.12-10.24 5.12-20.48 0 0 0 5.12 5.12 5.12 25.6 46.08 46.08 92.16 71.68 138.24 0 5.12 5.12 5.12 5.12 5.12h97.28c-5.12 0-5.12-5.12-5.12-5.12-35.84-61.44-71.68-117.76-107.52-179.2-5.12-5.12-5.12-10.24 0-20.48 35.84-61.44 71.68-117.76 107.52-179.2 0-5.12 5.12-5.12 5.12-10.24h-20.48zM0 783.36v-798.72c194.56-35.84 394.24-76.8 588.8-112.64V896C394.24 860.16 194.56 819.2 0 783.36z"  horiz-adv-x="1024" />

    
    <glyph glyph-name="baifang" unicode="&#59245;" d="M769.080274-51.8831c20.167726 40.986023 0 80.02033-26.673443 130.114358a137.92122 137.92122 0 0 0 5.855146 180.208386c53.346887 65.057179 102.790343 294.05845-124.259212 292.757306a514.602287 514.602287 0 0 1-135.969505-27.974587 217.94155 217.94155 0 0 1-164.594663-223.146124 577.057179 577.057179 0 0 1 152.884371-371.476493 251.771283 251.771283 0 0 1 187.364676-54.648031 320.081321 320.081321 0 0 1 105.39263 74.165185zM542.681291 625.362135a89.128335 89.128335 0 1 1-114.500635 53.346887 89.128335 89.128335 0 0 1 113.850063-53.346887zM331.89603 529.728081a89.128335 89.128335 0 1 1-113.850063 53.346887 89.128335 89.128335 0 0 1 113.850063-53.346887zM844.546602 602.592122a150.932656 150.932656 0 1 1-195.171537 90.429479 150.932656 150.932656 0 0 1 195.171537-90.429479zM201.1311 368.386277a89.128335 89.128335 0 1 1-98.23634 23.420584 89.128335 89.128335 0 0 1 96.284625-23.420584z"  horiz-adv-x="1024" />

    
    <glyph glyph-name="bianji" unicode="&#59067;" d="M840.305778-83.854222H195.072c-33.393778 0-68.152889 14.677333-94.492444 41.016889-26.339556 26.339556-41.927111 60.188444-41.927112 93.582222V721.408c0 34.474667 16.270222 66.332444 44.828445 88.689778a150.300444 150.300444 0 0 0 91.591111 30.947555h350.208a31.857778 31.857778 0 0 0 0-63.829333H195.072c-34.531556 0-72.533333-21.902222-72.533333-55.751111v-670.663111c0-34.872889 37.660444-70.712889 72.533333-70.712889h645.233778c33.848889 0 53.816889 36.238222 53.816889 70.712889v345.884444a31.857778 31.857778 0 0 0 63.829333 0v-345.941333c0-33.621333-10.410667-65.592889-29.980444-90.624-22.300444-28.615111-53.191111-43.975111-87.665778-43.975111zM500.337778 341.788444a40.334222 40.334222 0 0 0-28.501334 68.721778l425.472 425.472a40.220444 40.220444 0 1 0 56.945778-56.945778L528.839111 353.621333a40.391111 40.391111 0 0 0-28.501333-11.832889z"  horiz-adv-x="1024" />

    
    <glyph glyph-name="jifen" unicode="&#59045;" d="M739.69008639 275.07634716999996c-44.0745984-24.27027456-128.84279296-41.00325376-227.49282302-41.00325376-98.64085504 0-183.46180608 16.73297921-227.43318528 41.00325376-56.23611392 22.765568-98.17522176 53.43084544-119.48425217 88.9290752-9.9319808-16.52654081-16.8935424-33.78249727-16.8935424-51.97201409 0-100.41393152 162.88448512-210.31026689 363.80868607-210.31026687 200.88061952 0 363.81556735 109.89862913 363.81556737 210.31026687 0 18.23997953-6.90880512 35.44547328-16.83849216 51.97201409-21.3090304-35.49822977-63.250432-66.1635072-119.48195841-88.9290752m0 170.12359168c-44.0745984-24.27256832-128.84279296-41.01013505-227.49282302-41.01013503-98.64085504 0-183.46180608 16.68939775-227.43318528 41.01013503-56.23611392 22.76327424-98.17522176 53.42625792-119.48425217 88.97953792-9.9319808-16.58159104-16.8935424-33.78479105-16.8935424-51.97660159 0-100.46439425 162.88448512-181.90434305 363.80868607-181.90434305 200.88061952 0 363.81556735 81.49041151 363.81556737 181.90434305 0 18.19181056-6.90880512 35.39501057-16.83849216 51.97660159-21.3090304-35.55098624-63.250432-66.21626369-119.48195841-88.97953792m-484.75865088 78.49705473c65.85155584-32.89939968 156.80372736-53.32762624 257.26353408-53.32762625 100.46898176 0 191.41885951 20.37547008 257.21995265 53.27028224 33.00032513 16.42332161 59.56206592 36.02120704 77.96031488 57.79587071 18.45100544 21.7792512 28.6375936 45.68481792 28.6375936 70.78772736 0 9.92509952-2.33734144 19.48778496-5.77110017 28.89449473-27.90817792 86.74312192-176.86265856 153.06260479-358.04676096 153.06260481-181.12217088 0-330.13170176-66.31948289-357.98941695-152.95479809-3.47963393-9.40900352-5.81926912-19.02444545-5.81926912-28.94954496 0-25.1052032 10.18658815-49.01076992 28.58483712-70.78772736s45.0609152-41.37484288 77.96031487-57.79128319m484.75865088-432.93802497c-44.0745984-24.27256832-128.84279296-41.01013505-227.49282302-41.01013504-98.64085504 0-183.46180608 16.73756672-227.43318528 41.01013504-56.23611392 22.76327424-98.17522176 53.42625792-119.48425217 88.92448768-9.9319808-16.52654081-16.8935424-33.67927807-16.8935424-51.97201408 0-100.41163776 162.88448512-181.9066368 363.80868607-181.9066368 200.88061952 0 363.81556735 81.49270529 363.81556737 181.9066368 0 18.29502976-6.90880512 35.44776704-16.83849216 51.97201408-21.3090304-35.49822977-63.250432-66.16121344-119.48195841-88.92448768m0 0"  horiz-adv-x="1024" />

    
    <glyph glyph-name="sousuo" unicode="&#58904;" d="M922.5 23.7L713 233.2c112 136.2 104.4 337.7-22.9 464.9C622.5 765.8 533.7 799.7 445 799.7s-177.4-33.9-245-101.6C64.6 562.8 64.6 343.3 200 208c67.7-67.7 156.4-101.5 245.1-101.5 78.1 0 156.1 26.2 219.9 78.6l209.5-209.5c6.6-6.6 15.3-10 24-10s17.4 3.3 24 10c13.3 13.3 13.3 34.8 0 48.1zM445 174.5c-36.2 0-71.5 6.9-104.9 20.4-34.5 14-65.5 34.6-92.1 61.2-26.6 26.6-47.2 57.6-61.2 92.1-13.5 33.4-20.4 68.7-20.4 104.9s6.9 71.5 20.4 104.9c14 34.5 34.6 65.5 61.2 92.1 26.6 26.6 57.6 47.2 92.1 61.2 33.4 13.5 68.7 20.4 104.9 20.4s71.5-6.9 104.9-20.4c34.5-14 65.5-34.6 92.1-61.2 26.6-26.6 47.2-57.6 61.2-92.1 13.5-33.4 20.4-68.7 20.4-104.9s-6.9-71.5-20.4-104.9c-14-34.5-34.6-65.5-61.2-92.1-26.6-26.6-57.6-47.2-92.1-61.2-33.4-13.6-68.6-20.4-104.9-20.4z"  horiz-adv-x="1024" />

    
    <glyph glyph-name="da" unicode="&#59775;" d="M639.019 334.171H380.35v-98.485h258.669v98.485zM417.872 472.618h188.704c-33.475 20.269-64.936 42.782-94.375 67.464-28.657-24.683-60.071-47.196-94.329-67.464zM839.694 832H184.306C128.669 832 83.48 787.368 83.48 732.447v-597.339c0-54.928 45.189-99.541 100.826-99.541h554.557L940.52-64V732.447C940.52 787.368 895.323 832 839.694 832zM625.925 722.288c-5.216-15.119-10.039-28.056-14.472-38.851h174.181V632.1h-89.502c12.898-21.13 22.988-39.654 30.226-55.552l-51.395-18.528c-10.101 23.494-22.404 48.185-36.927 74.079h-51.399c-13.292-21.13-24.616-37.659-33.869-49.58l-47.219 29.864c30.277 37.024 52.042 77.422 65.333 121.282l55.043-11.377z m-307.313 11.948l54.449-11.364-14.519-39.435h153.067V632.1h-75.037c10.094-18.317 17.772-33.487 22.996-45.4l-52.038-18.516c-7.635 20.32-17.526 41.605-29.642 63.915h-42.926c-14.137-26.288-30.433-50.99-49.042-74.079l-48.341 31.071c37.912 45.787 64.885 94.155 81.033 145.145z m370.722-552.407h-50.316v2.474H380.35v-2.474h-48.734V385.554h357.719v-203.725z m75.727 214.329c-38.703 13.942-75.185 30.043-109.498 48.36v-24.503H371.242v26.884c-35.1-17.499-70.741-33.444-107.079-47.784l-27.815 49.58c102.054 35.431 187.722 80.254 257.138 134.414h37.464c76.268-58.532 163.554-104.508 261.973-138.006l-27.862-48.945z m0 0"  horiz-adv-x="1024" />

    
    <glyph glyph-name="shu" unicode="&#58883;" d="M893.615 775.155c-19.08 0-31.801-12.72-31.801-31.801v-737.789c0-31.801-31.802-63.602-63.603-63.602H238.51c-38.161 0-82.683 31.801-82.683 63.602v69.963c0 31.801 38.162 50.882 76.323 50.882h534.26c19.082 0 31.802 12.72 31.802 31.801V781.516C798.211 851.478 747.33 896 671.006 896H238.51C168.547 896 98.584 857.839 98.584 781.516V-19.875c6.36-57.243 63.602-101.765 120.845-108.125H798.21c69.963 0 127.205 57.242 127.205 120.845V743.354c0 12.72-12.72 31.801-31.801 31.801zM772.77 62.807H251.23c-19.08 0-31.801-12.72-31.801-31.8s12.72-31.802 31.8-31.802H772.77c19.08 0 31.801 12.72 31.801 31.801s-12.72 31.801-31.8 31.801z"  horiz-adv-x="1024" />

    
    <glyph glyph-name="bangzhu" unicode="&#58891;" d="M162.054891 91.920322c0 25.081103-20.141661 45.325136-44.966834 45.325135H45.018276A45.120392 45.120392 0 0 1 0.000256 91.920322c0-24.953138 20.116068-45.248357 45.01802-45.248357h72.044188c24.850766 0 44.992427 20.295219 44.992427 45.248357zM45.018276 630.984879h72.044188c24.850766 0 44.966834 20.346405 44.966834 45.299543 0 25.05551-20.141661 45.325136-44.966834 45.325135H45.018276C20.141917 721.609557 0.000256 701.314339 0.000256 676.284422c0-24.953138 20.141661-45.299543 45.01802-45.299543z m0-389.499288h72.044188c24.850766 0 44.966834 20.244033 44.966834 45.248357 0 25.05551-20.141661 45.325136-44.966834 45.325136H45.018276c-24.876359 0-45.01802-20.295219-45.01802-45.350729 0-24.978731 20.141661-45.222764 45.01802-45.222764z m947.758566 368.0012c-4.709105 0-9.341431-0.665417-13.641048-1.714728v-186.777437c4.299618-1.100497 8.957537-1.740321 13.641048-1.740321 31.121042 0 82.127815 25.337032 82.127815 56.637225v76.983629c0 31.274599-51.006773 56.611632-82.127815 56.611632z m0 199.343581c-4.709105 0-9.341431-0.69101-13.641048-1.791508v-186.700657c4.453175-1.177276 9.059909-1.791507 13.641048-1.791507 31.121042 0 82.127815 25.337032 82.127815 56.637224V752.116368c0 31.325785-51.006773 56.714004-82.127815 56.714004zM45.018276 436.222439h72.044188c24.850766 0 44.966834 20.295219 44.966834 45.325135s-20.141661 45.27395-44.966834 45.27395H45.018276C20.141917 526.795931 0.000256 506.551898 0.000256 481.521981s20.141661-45.299543 45.01802-45.299542z m947.758566-26.028042a56.560446 56.560446 0 0 1-13.641048-1.740322v-186.751843c4.299618-1.100497 8.957537-1.740321 13.641048-1.740322 31.121042 0 82.127815 25.337032 82.127815 56.586039v77.086002c0 31.223414-51.006773 56.560446-82.127815 56.560446z m0 0M867.473701 896H159.060514C108.232892 896 66.644329 854.078728 66.644329 802.918397v-54.103521h50.418135a72.274525 72.274525 0 0 0 71.993002-72.453675 72.274525 72.274525 0 0 0-71.993002-72.504861h-50.418135v-49.829497h50.418135a72.223339 72.223339 0 0 0 71.993002-72.479269 72.300117 72.300117 0 0 0-71.993002-72.504861h-50.418135v-49.803904h50.418135a72.223339 72.223339 0 0 0 71.993002-72.504861c0-40.027392-32.247132-72.428082-71.993002-72.428082h-50.418135v-49.778311h50.418135a72.376896 72.376896 0 0 0 71.993002-72.58164c0-39.950614-32.247132-72.428082-71.993002-72.428082h-50.418135v-54.129115C66.644329-85.771613 108.232892-127.718477 159.060514-127.718477h708.413187c50.929994 0 92.569743 41.946865 92.569743 93.081602V802.918397C960.043444 854.078728 918.403695 896 867.473701 896zM598.542857 47.132639H509.556128v89.575366h88.986729v-89.575366z m141.196371 399.301392c-13.052411-23.596711-38.466222-52.260828-76.369399-86.069131-25.592962-22.700957-42.177201-39.464347-49.983054-50.187799a110.280073 110.280073 0 0 1-17.352028-37.186573c-3.787758-13.896978-5.937567-36.700307-6.551799-68.128465H514.418791c-0.307116 10.493114-0.511859 18.40134-0.511859 23.596711 0 30.839519 4.325211 57.532978 13.078003 79.978006 6.372648 16.840169 16.635425 33.885082 30.865112 51.160331 10.36515 12.43818 29.099198 30.76274 56.176552 54.743345 27.102947 24.031791 44.659719 43.20092 52.772687 57.481793a93.158381 93.158381 0 0 1 12.131064 46.732748c0 30.58359-11.875134 57.4562-35.625403 80.61783-23.724676 23.136038-52.79828 34.678463-87.297593 34.678464-33.245258 0-61.013621-10.467521-83.279498-31.45375-22.29147-20.90945-36.905051-53.796406-43.917523-98.276974l-80.3619 9.571768c7.319587 59.70838 28.792082 105.41741 64.494264 137.178276 35.830147 31.735273 82.972383 47.628502 141.810602 47.628502 62.267676 0 111.89243-17.044913 148.951038-51.083552 37.084202-34.089825 55.56232-75.371273 55.562321-123.614006a157.166379 157.166379 0 0 0-19.52743-77.367524z m0 0"  horiz-adv-x="1075" />

    
    <glyph glyph-name="xiaoshou1" unicode="&#58881;" d="M256 313.6v-326.4h153.6V313.6l-76.8 64-76.8-64zM0-12.8h153.6V236.8L0 115.2v-128z m768 403.2v-403.2h153.6V518.4L768 390.4z m-256-160v-243.2h153.6v320L544 204.8l-32 25.6z m512 550.4H729.6l121.6-115.2-313.6-256-204.8 172.8L0 320v-115.2l332.8 262.4L544 294.4l377.6 307.2 102.4-96V780.8z"  horiz-adv-x="1024" />

    
    <glyph glyph-name="wenjian" unicode="&#58956;" d="M938.672 696.896h-404a57.024 57.024 0 0 0-28.224 7.488l-159.792 91.264a114.128 114.128 0 0 1-56.448 15.008H85.328A85.424 85.424 0 0 1 0 725.328v-682.656a85.424 85.424 0 0 1 85.328-85.328h853.344A85.424 85.424 0 0 1 1024 42.672V611.552a85.424 85.424 0 0 1-85.328 85.344z m28.448-654.224a28.48 28.48 0 0 0-28.448-28.448H85.328a28.48 28.48 0 0 0-28.448 28.448V469.328h910.224l0.016-426.656zM56.896 526.224V725.328a28.48 28.48 0 0 0 28.448 28.448h204.88c9.904 0 19.648-2.576 28.24-7.488l159.744-91.28a114 114 0 0 1 56.464-14.992h404a28.48 28.48 0 0 0 28.448-28.448v-85.328H56.896z m0 0"  horiz-adv-x="1024" />

    
    <glyph glyph-name="hudong" unicode="&#59563;" d="M493.9 426.9h367.7c40.6 0 73.7 33 73.7 73.7V732.1c0 40.6-33 73.7-73.7 73.7H493.9c-40.6 0-73.7-33-73.7-73.7v-231.6c0-40.6 33.1-73.6 73.7-73.6z m-9.7 305.2c0 5.3 4.3 9.7 9.7 9.7h367.7c5.3 0 9.7-4.3 9.7-9.7v-231.6c0-5.3-4.3-9.7-9.7-9.7H493.9c-5.3 0-9.7 4.3-9.7 9.7V732.1zM530.1 341.1H162.4c-40.6 0-73.7-33-73.7-73.7v-231.6c0-40.6 33-73.7 73.7-73.7h367.7c40.6 0 73.7 33 73.7 73.7V267.5c0 40.6-33.1 73.6-73.7 73.6z m9.7-305.2c0-5.3-4.3-9.7-9.7-9.7H162.4c-5.3 0-9.7 4.3-9.7 9.7V267.5c0 5.3 4.3 9.7 9.7 9.7h367.7c5.3 0 9.7-4.3 9.7-9.7v-231.6zM948.3 377.3l-61.6-17.5c30.8-108-27.5-220.6-131-259.1l-15.3 53.6L655 37.9l134-53.8-15.6 54.8c64.2 22.5 117.2 67.1 150.5 127 36.1 64.8 44.7 139.9 24.4 211.4zM156 571c25 44.9 64.4 78.7 112.2 96.4l15.3-53.6L369 730.1l-134 53.8 15.6-54.8c-64.2-22.5-117.2-67.1-150.5-127C64 537.3 55.4 462.2 75.7 390.7l61.6 17.5c-15.7 55.1-9 112.9 18.7 162.8z"  horiz-adv-x="1024" />

    
    <glyph glyph-name="daibanrenwu" unicode="&#58897;" d="M630.352 212.228H279.784v-88.281h350.568v88.281z m0 191.7H279.784v-88.431h350.568v88.431zM498.146 593.424H279.784v-88.287h218.363v88.287z m59.57 177.158H132.242v-808.227H777.91V373.373h88.316v-423.94c-0.074-41.631-33.832-75.345-75.463-75.359H119.448c-41.628 0.014-75.381 33.728-75.448 75.359V783.51c0.067 41.625 33.82 75.339 75.448 75.359h438.327v-88.287h-0.059z m433.139-21.009L858.795 882.224c-4.625 6.214-13.418 7.506-19.632 2.881a14.04 14.04 0 0 1-5.343-8.318l-17.993-48.479a71.562 71.562 0 0 0-29.381-33.193l-167.463-86.668c-8.358-3.376-12.398-12.883-9.026-21.246a16.235 16.235 0 0 1 4.619-6.372l59.936-60.228-98.219-141.315 145.019 94.308 68.878-69.19c6.154-7.165 16.953-7.981 24.113-1.832a17.14 17.14 0 0 1 4.317 5.655l91.985 162.026a92.158 92.158 0 0 0 32.961 31.144L986.33 722.4c8.225 3.085 12.389 12.26 9.304 20.484a15.888 15.888 0 0 1-4.779 6.689z"  horiz-adv-x="1024" />

    
    <glyph glyph-name="huanzhe" unicode="&#59057;" d="M85.461333-42.666667a267.712 267.712 0 0 0 5.205334 96c15.232 57.728 54.506667 113.984 142.613333 172.949334C288.170667 154.922667 392.32 106.666667 512 106.666667c117.802667 0 220.458667 46.805333 275.989333 116.309333 83.904-63.594667 126.656-117.994667 146.005334-170.965333 11.136-30.442667 4.266667-68.629333 4.266666-94.677334H85.568zM512 149.333333c-105.408 0-197.162667 39.36-245.674667 97.557334a577.536 577.536 0 0 0 122.410667 53.76 276.437333 276.437333 0 0 0-75.434667 95.616A837.290667 837.290667 0 0 1 565.333333 473.728a655.829333 655.829333 0 0 1 177.728 128.405333 348.757333 348.757333 0 0 0 3.605334-49.066666c0-107.52-45.248-201.386667-112.768-253.568a584.341333 584.341333 0 0 0 121.194666-55.466667C705.984 187.413333 615.637333 149.333333 512 149.333333zM295.850667 437.845333a363.562667 363.562667 0 0 0-9.386667 34.474667A780.8 780.8 0 0 1 544 559.061333a751.594667 751.594667 0 0 1 173.76 126.805334 260.074667 260.074667 0 0 0 14.336-35.370667 649.557333 649.557333 0 0 0-183.466667-137.152 740.266667 740.266667 0 0 0-252.778666-75.498667z m-16.298667 76.8a373.738667 373.738667 0 0 0-2.133333 38.4c0 164.096 105.066667 257.514667 234.666666 257.514667a223.616 223.616 0 0 0 184.32-89.6 801.408 801.408 0 0 0-169.045333-122.304 686.357333 686.357333 0 0 0-247.893333-83.989333z"  horiz-adv-x="1024" />

    
    <glyph glyph-name="weixin" unicode="&#58885;" d="M1024 259.968c0 141.88544-141.87008 257.42848-301.46048 257.42848-169.088 0-301.86496-115.54304-301.86496-257.42848 0-142.24896 132.77696-257.38752 301.86496-257.38752 35.36896 0 71.14752 9.02656 106.496 17.64352l97.44896-53.42208-26.66496 88.79104C970.92096 109.03552 1024 180.16256 1024 259.968z m-399.38048 44.416c-17.64352 0-35.328 17.664-35.328 35.38944 0 17.62304 17.68448 35.328 35.328 35.328 26.752 0 44.46208-17.70496 44.46208-35.328 0-17.72544-17.71008-35.38944-44.46208-35.38944z m195.38944 0c-17.65888 0-35.30752 17.664-35.30752 35.38944 0 17.62304 17.64352 35.328 35.30752 35.328 26.71104 0 44.42112-17.70496 44.42112-35.328 0-17.72544-18.14016-35.38944-44.42112-35.38944zM693.248 548.75648c11.62752 0 23.296-0.80896 34.89792-2.00704-31.27296 146.13504-187.392 254.464-365.67552 254.464C163.36896 801.21344 0 665.55904 0 492.96896c0-99.56352 54.20544-181.42208 144.91648-244.85888l-36.11648-109.14304L235.62752 202.752c45.35296-8.81152 81.87904-18.06848 126.848-18.06848 11.21792 0 22.50752 0.4096 33.75104 1.5616a264.67328 264.67328 0 0 0-11.24352 75.8784c-0.02048 158.18752 136.08448 286.63296 308.26496 286.63296zM498.13504 647.10656c27.2896 0 45.3376-18.06848 45.3376-45.37856 0-27.264-18.06848-45.33248-45.3376-45.33248-27.30496 0-54.56896 18.06848-54.56896 45.33248 0.39936 27.32544 27.64288 45.37856 54.56896 45.37856zM244.45952 556.43648c-27.30496 0-54.56896 18.048-54.56896 45.33248 0 27.30496 27.28448 45.35296 54.56896 45.35296 27.33056 0 45.39904-18.06848 45.39904-45.35296-0.0256-26.90048-18.0736-45.33248-45.39904-45.33248z"  horiz-adv-x="1024" />

    
    <glyph glyph-name="tianjia" unicode="&#59213;" d="M476.974504 419.795248V850.616476a45.35667 45.35667 0 0 0 90.71334 0v-430.848083h408.183174a45.35667 45.35667 0 0 0 0-90.713339h-408.183174v-408.183175a45.35667 45.35667 0 1 0-90.71334 0v408.183175H46.153276a45.35667 45.35667 0 0 0 0 90.713339h430.848082z"  horiz-adv-x="1024" />

    
    <glyph glyph-name="shanchu" unicode="&#58953;" d="M517.58962466 874.39120924c-100.29834625 0-181.70218535-79.51438801-185.16617816-179.34037149H98.60391021c-25.97994876 0-47.23626977-21.09886761-47.23626977-47.23626977 0-25.97994876 21.09886761-47.23626977 47.23626977-47.23626977h52.11735092V72.16189138000004c0-99.1961673 67.23295714-180.28509702 150.36879396-180.28509702h423.55188751c82.97838083 0 150.36879267 80.61656695 150.36879267 180.28509702V600.2633888299999h47.23626978c25.97994876 0 47.23626977 21.09886761 47.23626977 47.23627106 0 25.97994876-21.09886761 47.23626977-47.23626977 47.23626978H702.44089476c-2.99163005 100.14089285-84.55292385 179.65527956-184.8512701 179.65527957z m-96.67689872-179.34037149c3.46399282 51.17262538 45.18936527 90.85109203 96.83435342 90.85109332s93.3703606-39.83592135 96.36199065-90.85109332H420.91272594z m-119.98012552-714.84221862c-29.44394159 0-61.87951322 37.78901555-61.87951323 91.95327225V600.2633888299999h547.31091395v-528.57386022c0-54.00680203-32.43557164-91.95327228-61.87951323-91.95327227h-423.55188749v0.47236279z m0 0M364.38665664 93.73312048000003c21.57123039 0 39.36355857 21.57123039 39.36355857 48.6533581V419.97829181c0 27.08212771-17.63487349 48.65335809-39.36355857 48.6533581-21.57123039 0-39.36355857-21.57123039-39.36355857-48.6533581v-277.59181323c0-26.92467431 17.31996541-48.65335809 39.36355857-48.6533581z m142.49608018 0c21.57123039 0 39.36355857 21.57123039 39.36355857 48.6533581V419.97829181c0 27.08212771-17.63487349 48.65335809-39.36355857 48.6533581-21.57123039 0-39.36355857-21.57123039-39.36355728-48.6533581v-277.59181323c0-26.92467431 17.79232819-48.65335809 39.36355728-48.6533581z m149.89643119 0c21.57123039 0 39.36355857 21.57123039 39.36355727 48.6533581V419.97829181c0 27.08212771-17.63487349 48.65335809-39.36355727 48.6533581-21.57123039 0-39.36355857-21.57123039-39.36355859-48.6533581v-277.59181323c0-26.92467431 17.16251201-48.65335809 39.36355859-48.6533581z m0 0"  horiz-adv-x="1024" />

    
    <glyph glyph-name="kecheng" unicode="&#58882;" d="M211.2 896H70.4C32 896 0 864 0 825.6v-876.8c0-38.4 32-70.4 70.4-70.4h147.2c38.4 0 70.4 32 70.4 70.4V825.6C281.6 864 249.6 896 211.2 896z m-12.8-326.4H83.2c-12.8 0-25.6 6.4-25.6 19.2 0 12.8 12.8 25.6 25.6 25.6h115.2c12.8 0 25.6-12.8 25.6-25.6s-12.8-19.2-25.6-19.2z m0 96H83.2c-12.8 0-25.6 12.8-25.6 25.6s12.8 25.6 25.6 25.6h115.2c12.8 0 25.6-12.8 25.6-25.6s-12.8-25.6-25.6-25.6zM851.2 876.8c-6.4 0-19.2-6.4-19.2-19.2v-940.8c0-6.4 6.4-19.2 19.2-19.2 6.4 0 19.2 6.4 19.2 19.2V857.6c0 6.4-12.8 19.2-19.2 19.2z m192 19.2c-19.2 0-38.4-19.2-38.4-38.4v-940.8c0-19.2 19.2-38.4 38.4-38.4s38.4 19.2 38.4 38.4V857.6c0 19.2-12.8 38.4-38.4 38.4zM940.8 876.8c-6.4 0-19.2-6.4-19.2-19.2v-940.8c0-6.4 6.4-19.2 19.2-19.2 6.4 0 19.2 6.4 19.2 19.2V857.6c0 6.4-6.4 19.2-19.2 19.2zM742.4 896C723.2 896 704 876.8 704 857.6v-940.8c0-19.2 19.2-38.4 38.4-38.4s38.4 19.2 38.4 38.4V857.6C787.2 876.8 768 896 742.4 896zM563.2 896H422.4C384 896 352 864 352 825.6v-876.8c0-38.4 32-70.4 70.4-70.4h147.2c38.4 0 70.4 32 70.4 70.4V825.6C633.6 864 601.6 896 563.2 896z m-12.8-326.4H435.2c-12.8 0-25.6 6.4-25.6 19.2 0 12.8 12.8 25.6 25.6 25.6h115.2c12.8 0 25.6-12.8 25.6-25.6s-12.8-19.2-25.6-19.2z m0 96H435.2c-12.8 0-25.6 12.8-25.6 25.6s12.8 25.6 25.6 25.6h115.2c12.8 0 25.6-12.8 25.6-25.6s-12.8-25.6-25.6-25.6z"  horiz-adv-x="1088" />

    
    <glyph glyph-name="yisheng" unicode="&#59096;" d="M861.184-128c-88.064 0.512-190.464 0-336.896 0v53.76c47.616 25.6 99.84 296.448 139.264 294.912 151.04-30.72 258.56-116.224 258.56-279.552-2.56-41.984-23.04-69.12-60.928-69.12zM730.624 416.768c-33.28-110.592-120.32-188.928-222.72-188.928s-189.44 78.848-222.72 189.44c-15.36 7.168-33.792 23.04-40.96 63.488-9.216 52.736 23.552 65.536 23.552 65.536 2.56 0 4.608-1.536 7.168-5.12 5.12 14.848 14.336 27.648 25.088 38.4 41.984 40.96 118.784 62.976 211.968 62.976 84.48 0.512 143.36-5.12 203.264-61.952 10.752-10.24 20.48-25.6 25.6-41.472 3.072 4.608 6.144 7.168 8.704 7.168 0 0 33.28-12.8 24.064-65.536-7.68-41.984-27.648-57.344-43.008-64zM259.072 606.72V829.44S368.128 896 498.688 896c125.952 0 252.416-66.56 252.416-66.56v-222.72s-72.704 81.92-246.272 81.92c-174.08 0-245.76-81.92-245.76-81.92zM573.44 775.168v29.184h-53.76V857.6h-28.672V803.84H437.248v-29.184h53.76v-53.76h28.672V775.168H573.44zM499.712-74.24V-128c-146.432 0-249.344 0.512-336.896 0-37.888 0-58.368 26.624-60.416 69.12 0 162.816 107.008 248.832 258.56 279.552 38.912 1.024 91.136-269.312 138.752-294.912z"  horiz-adv-x="1024" />

    
    <glyph glyph-name="shanjian" unicode="&#59008;" d="M512 832C264.577067 832 64 631.422933 64 384s200.577067-448 448-448 448 200.577067 448 448S759.422933 832 512 832z m231.466667-499.2H280.533333c-28.277333 0-51.2 22.922667-51.2 51.2s22.922667 51.2 51.2 51.2h462.933334c28.277333 0 51.2-22.922667 51.2-51.2s-22.922667-51.2-51.2-51.2z"  horiz-adv-x="1024" />

    


  </font>
</defs>
</svg>
